<svg xmlns="http://www.w3.org/2000/svg" viewBox="0 0 512 512">
  <defs>
    <linearGradient id="bg" x1="0" y1="0" x2="0" y2="1">
      <stop offset="0" stop-color="#1a2038"/>
      <stop offset="1" stop-color="#0f111a"/>
    </linearGradient>
    <linearGradient id="body" x1="0" y1="0" x2="1" y2="1">
      <stop offset="0" stop-color="#ffd23f"/>
      <stop offset="1" stop-color="#f29a1f"/>
    </linearGradient>
    <linearGradient id="head" x1="0" y1="0" x2="0" y2="1">
      <stop offset="0" stop-color="#ffe064"/>
      <stop offset="1" stop-color="#f7ab2b"/>
    </linearGradient>
    <radialGradient id="glow" cx="0.5" cy="0.4" r="0.5">
      <stop offset="0" stop-color="#7dd3fc" stop-opacity="0.45"/>
      <stop offset="1" stop-color="#7dd3fc" stop-opacity="0"/>
    </radialGradient>
  </defs>

  <rect width="512" height="512" rx="104" fill="url(#bg)"/>
  <circle cx="256" cy="250" r="200" fill="url(#glow)"/>

  <path d="M120 330 Q92 330 96 356 Q100 382 150 404 L210 420
           Q300 452 392 436 Q452 424 452 396
           Q452 372 414 352 Q370 332 360 292
           Q352 260 312 244 Q262 226 232 248
           Q152 266 150 316 Q148 330 120 330 Z" fill="url(#body)"/>

  <circle cx="322" cy="172" r="104" fill="url(#head)"/>

  <path d="M424 158 Q500 154 496 190 Q494 212 452 214 Q438 216 424 214 Z" fill="#e06b1d"/>
  <path d="M424 214 Q492 218 486 240 Q482 254 448 248 Q432 244 420 240 Z" fill="#c95a15"/>

  <circle cx="342" cy="128" r="16" fill="#15121a"/>
  <circle cx="348" cy="122" r="5" fill="#ffffff"/>

  <ellipse cx="330" cy="382" rx="76" ry="40" fill="#e89a24" opacity="0.9"/>
  <path d="M286 396 Q342 378 388 398 Q358 424 318 424 Q292 424 286 396 Z" fill="#f7c23a" opacity="0.6"/>
</svg>